<?xml version="1.0" encoding="UTF-8" standalone="no"?>
<!DOCTYPE svg PUBLIC "-//W3C//DTD SVG 1.1//EN" "http://www.w3.org/Graphics/SVG/1.1/DTD/svg11.dtd">
<svg width="100%" height="100%" viewBox="0 0 512 512" version="1.1" xmlns="http://www.w3.org/2000/svg" xmlns:xlink="http://www.w3.org/1999/xlink" xml:space="preserve" xmlns:serif="http://www.serif.com/" style="fill-rule:evenodd;clip-rule:evenodd;stroke-linejoin:round;stroke-miterlimit:2;">
    <path d="M512,256C512,114.6 397.4,0 256,0C114.6,0 0,114.6 0,256C0,376 82.7,476.8 194.2,504.5L194.2,334.2L141.4,334.2L141.4,256L194.2,256L194.2,222.3C194.2,135.2 233.6,94.8 319.2,94.8C335.4,94.8 363.4,98 374.9,101.2L374.9,172C368.9,171.4 358.4,171 345.3,171C303.3,171 287.1,186.9 287.1,228.2L287.1,256L370.7,256L356.3,334.2L287,334.2L287,510.1C413.8,494.8 512,386.9 512,256Z" style="fill:white;fill-rule:nonzero;"/>
</svg>
