<?xml version="1.0" encoding="UTF-8" standalone="no"?>
<!DOCTYPE svg PUBLIC "-//W3C//DTD SVG 1.1//EN" "http://www.w3.org/Graphics/SVG/1.1/DTD/svg11.dtd">
<svg width="100%" height="100%" viewBox="0 0 448 448" version="1.1" xmlns="http://www.w3.org/2000/svg" xmlns:xlink="http://www.w3.org/1999/xlink" xml:space="preserve" xmlns:serif="http://www.serif.com/" style="fill-rule:evenodd;clip-rule:evenodd;stroke-linejoin:round;stroke-miterlimit:2;">
    <g transform="matrix(1,0,0,1,0,-32)">
        <path d="M194.4,211.7C179.606,221.59 170.702,238.254 170.702,256.05C170.702,285.316 194.784,309.398 224.05,309.398C234.605,309.398 244.926,306.266 253.7,300.4C268.494,290.51 277.398,273.846 277.398,256.05C277.398,226.784 253.316,202.702 224.05,202.702C213.495,202.702 203.174,205.834 194.4,211.7ZM336.7,143.3C331.5,138.1 325.2,134 318.3,131.3C300.2,124.2 260.7,124.5 235.2,124.8C231.1,124.8 227.3,124.9 224,124.9C220.7,124.9 216.8,124.9 212.6,124.8C187.1,124.5 147.8,124.1 129.7,131.3C122.8,134 116.6,138.1 111.3,143.3C106,148.5 102,154.8 99.3,161.7C92.2,179.8 92.6,219.4 92.8,244.9C92.8,249 92.9,252.8 92.9,256C92.9,259.2 92.9,263 92.8,267.1C92.6,292.6 92.2,332.2 99.3,350.3C102,357.2 106.1,363.4 111.3,368.7C116.5,374 122.8,378 129.7,380.7C147.8,387.8 187.3,387.5 212.8,387.2C216.9,387.2 220.7,387.1 224,387.1C227.3,387.1 231.2,387.1 235.4,387.2C260.9,387.5 300.2,387.9 318.3,380.7C325.2,378 331.4,373.9 336.7,368.7C342,363.5 346,357.2 348.7,350.3C355.9,332.3 355.5,292.9 355.2,267.3C355.2,263.1 355.1,259.2 355.1,255.9C355.1,252.6 355.1,248.8 355.2,244.5C355.5,219 355.9,179.6 348.7,161.5C346,154.6 341.9,148.4 336.7,143.1L336.7,143.3ZM269.6,187.8C292.349,203.01 306.04,228.635 306.04,256C306.04,301.006 269.006,338.04 224,338.04C207.767,338.04 191.894,333.223 178.4,324.2C155.639,308.998 141.938,283.37 141.938,256C141.938,211.009 178.959,173.988 223.95,173.988C240.163,173.988 256.018,178.795 269.5,187.8L269.6,187.8ZM298.8,186.5C295.7,184.4 293.2,181.4 291.7,177.9C290.2,174.4 289.9,170.6 290.6,166.8C291.3,163 293.2,159.7 295.8,157C298.4,154.3 301.9,152.5 305.6,151.8C309.3,151.1 313.2,151.4 316.7,152.9C320.2,154.4 323.2,156.8 325.3,159.9C327.4,163 328.5,166.7 328.5,170.5C328.5,173 328,175.5 327.1,177.8C326.2,180.1 324.7,182.2 323,184C321.3,185.8 319.1,187.2 316.8,188.2C314.5,189.2 312,189.7 309.5,189.7C305.7,189.7 302,188.6 298.9,186.5L298.8,186.5ZM448,96C448,60.7 419.3,32 384,32L64,32C28.7,32 0,60.7 0,96L0,416C0,451.3 28.7,480 64,480L384,480C419.3,480 448,451.3 448,416L448,96ZM357,389C338.3,407.7 315.6,413.6 290,414.9C263.6,416.4 184.4,416.4 158,414.9C132.4,413.6 109.7,407.7 91,389C72.3,370.3 66.4,347.6 65.2,322C63.7,295.6 63.7,216.4 65.2,190C66.5,164.4 72.3,141.7 91,123C109.7,104.3 132.5,98.4 158,97.2C184.4,95.7 263.6,95.7 290,97.2C315.6,98.5 338.3,104.3 357,123C375.7,141.7 381.6,164.4 382.8,190C384.3,216.3 384.3,295.4 382.8,321.9C381.5,347.5 375.7,370.2 357,388.9L357,389Z" style="fill:white;fill-rule:nonzero;"/>
    </g>
</svg>
